<?xml version="1.0" standalone="no"?>
<!DOCTYPE svg PUBLIC "-//W3C//DTD SVG 20010904//EN"
 "http://www.w3.org/TR/2001/REC-SVG-20010904/DTD/svg10.dtd">
<svg version="1.0" xmlns="http://www.w3.org/2000/svg"
 width="787.000000pt" height="787.000000pt" viewBox="0 0 787.000000 787.000000"
 preserveAspectRatio="xMidYMid meet">
<metadata>
Created by potrace 1.11, written by Peter Selinger 2001-2013
</metadata>
<g transform="translate(0.000000,787.000000) scale(0.100000,-0.100000)"
fill="#000000" stroke="none">
<path d="M3848 7357 c-39 -11 -146 -69 -367 -199 -25 -15 -57 -33 -71 -41 -38
-21 -680 -392 -720 -416 -19 -11 -42 -24 -50 -28 -8 -4 -73 -41 -146 -84 -72
-42 -151 -88 -175 -102 -87 -49 -425 -245 -477 -275 -29 -18 -55 -32 -58 -32
-13 0 -118 -74 -146 -102 -76 -78 -110 -234 -72 -335 33 -90 76 -139 171 -196
48 -28 439 -254 563 -325 19 -11 72 -42 118 -68 46 -27 91 -53 100 -59 10 -5
67 -38 127 -73 61 -35 117 -67 125 -72 57 -34 192 -112 225 -130 48 -27 687
-395 730 -421 81 -49 121 -62 195 -65 85 -3 129 9 217 60 76 43 612 353 773
446 69 40 145 84 170 98 25 14 57 33 72 43 14 11 29 19 32 19 4 0 78 42 151
87 11 7 27 16 35 20 16 7 333 190 430 247 30 18 129 75 219 127 90 52 178 108
196 124 113 106 139 258 68 398 -42 84 -76 108 -458 327 -81 47 -155 90 -200
117 -27 16 -57 32 -65 36 -8 4 -31 17 -50 28 -19 12 -141 82 -270 157 -129 74
-318 184 -420 243 -476 276 -717 413 -756 431 -57 25 -156 31 -216 15z"/>
<path d="M1155 5090 c-80 -20 -149 -68 -195 -134 -63 -93 -60 -18 -57 -1396
l2 -1255 25 -50 c47 -96 110 -141 508 -365 188 -106 378 -216 380 -222 2 -5 8
-8 13 -8 7 0 139 -73 179 -100 8 -6 21 -13 29 -17 8 -3 117 -66 244 -140 126
-73 232 -133 234 -133 3 0 17 -8 31 -19 15 -10 47 -29 72 -43 25 -14 86 -49
135 -78 50 -29 99 -58 110 -64 11 -6 82 -47 158 -90 80 -46 160 -84 192 -91
170 -40 331 51 390 221 16 45 17 146 17 1274 0 674 -3 1243 -7 1265 -19 100
-83 180 -197 245 -40 24 -109 64 -153 90 -44 26 -100 58 -125 72 -25 14 -106
60 -180 103 -74 43 -232 134 -350 203 -118 68 -230 133 -247 143 -18 11 -50
29 -70 40 -21 12 -234 134 -473 272 -239 139 -457 259 -485 269 -52 18 -128
22 -180 8z"/>
<path d="M6540 5085 c-25 -8 -182 -94 -350 -191 -168 -97 -314 -182 -325 -188
-37 -20 -360 -207 -375 -216 -8 -6 -98 -58 -200 -116 -235 -135 -308 -177
-398 -231 -40 -24 -75 -43 -78 -43 -2 0 -23 -12 -47 -27 -23 -15 -51 -31 -62
-37 -151 -82 -326 -189 -357 -221 -41 -40 -80 -108 -92 -159 -13 -53 -9 -2492
4 -2534 33 -104 83 -166 172 -210 71 -35 141 -44 216 -30 40 7 210 94 322 164
40 25 480 278 555 319 28 15 55 31 60 35 6 4 71 43 145 85 74 43 149 86 165
95 17 10 74 43 128 74 53 31 141 81 195 112 53 31 113 65 132 76 58 33 282
164 320 187 19 11 42 24 50 28 54 24 154 99 180 135 70 96 65 -20 68 1358 3
1385 6 1316 -64 1413 -38 53 -118 109 -179 126 -53 15 -130 13 -185 -4z"/>
</g>
</svg>
